<svg xmlns="http://www.w3.org/2000/svg" width="24" height="25" viewBox="0 0 24 25" fill="none">
  <path d="M12 17.1995C12 19.9609 14.2386 22.1995 17 22.1995C19.7614 22.1995 22 19.9609 22 17.1995C22 14.438 19.7614 12.1995 17 12.1995C14.2386 12.1995 12 14.438 12 17.1995ZM12 17.1995C12 16.0736 12.3721 15.0347 13 14.199V5.19946M12 17.1995C12 18.0248 12.2 18.8035 12.5541 19.4896C11.7117 20.2012 9.76584 20.6995 7.5 20.6995C4.46243 20.6995 2 19.804 2 18.6995V5.19946M13 5.19946C13 6.30403 10.5376 7.19946 7.5 7.19946C4.46243 7.19946 2 6.30403 2 5.19946M13 5.19946C13 4.09489 10.5376 3.19946 7.5 3.19946C4.46243 3.19946 2 4.09489 2 5.19946M2 14.1995C2 15.304 4.46243 16.1995 7.5 16.1995C9.689 16.1995 11.5793 15.7344 12.4646 15.0612M13 9.69946C13 10.804 10.5376 11.6995 7.5 11.6995C4.46243 11.6995 2 10.804 2 9.69946" stroke="black" stroke-width="2" stroke-linecap="round" stroke-linejoin="round"/>
</svg>